# xmcd
#
# Track frame offsets: 
#        150
#        20391
#        39058
#        57677
#        81859
#        98150
#        119267
#        136050
#        154822
#        178988
#        198321
#        222794
#        241370
#        258923
#
# Disc length: 3688 seconds
#
# Revision: 1
# Processed by: cddbd v1.5.2PL0 Copyright (c) Steve Scherf et al.
# Submitted via: ExactAudioCopyFreeDBPlugin 1.0
#
DISCID=ba0e660e
DTITLE=Tan Biónica - Canciones del Huracán
DYEAR=2009
DGENRE=Rock Alternativo
TTITLE0=Chica biónica
TTITLE1=Arruinarse
TTITLE2=Mis Madrugaditas
TTITLE3=La ensalada
TTITLE4=Yo te Espero
TTITLE5=Vidas Perfectas
TTITLE6=El Huracán
TTITLE7=Tapa de Moda
TTITLE8=La Depresión
TTITLE9=Queso Ruso
TTITLE10=Vinidy Swing
TTITLE11=Nací en Primavera
TTITLE12=Bye Bye
TTITLE13=Lunita de Tucumán
EXTD=
EXTT0=
EXTT1=
EXTT2=
EXTT3=
EXTT4=
EXTT5=
EXTT6=
EXTT7=
EXTT8=
EXTT9=
EXTT10=
EXTT11=
EXTT12=
EXTT13=
PLAYORDER=
